<svg width="638" height="667" viewBox="0 0 638 667" fill="none" xmlns="http://www.w3.org/2000/svg">
<path d="M638 318.942C637.999 264.474 624.047 210.914 597.472 163.366C570.898 115.818 532.587 75.8663 486.191 47.3192C439.794 18.772 386.859 2.58042 332.429 0.287427C278 -2.00556 223.89 9.67649 175.256 34.2202C126.622 58.764 85.0857 95.3516 54.6048 140.496C24.124 185.64 5.71459 237.837 1.13113 292.112C-3.45233 346.387 5.94288 400.931 28.4213 450.546C50.8998 500.161 85.7125 543.194 129.542 575.544V667.001H513.562V571.79C552.319 542.017 583.702 503.725 605.28 459.879C626.859 416.033 638.055 367.809 638 318.942Z" fill="#1D1930"/>
</svg>
