<svg xmlns="http://www.w3.org/2000/svg" viewBox="0 0 233.26 233.26"><defs><style>.cls-1{fill:#f2eee5;}</style></defs><title>01. Rounded Outside</title><g id="Camada_2" data-name="Camada 2"><g id="Rotation_circle" data-name="Rotation circle"><g id="Base"><path class="cls-1" d="M229.68,116.63c0-3.38,3.85-6.9,3.56-10.2S228.55,100.26,228,97s2.6-7.45,1.74-10.66S224,81.08,222.89,78s1.26-7.78-.15-10.8-6.52-4.16-8.19-7.05-.11-7.88-2-10.62-7.14-3-9.29-5.52-1.47-7.73-3.83-10.1-7.54-1.68-10.1-3.84-2.79-7.36-5.53-9.28-7.71-.36-10.61-2-4-6.76-7-8.18-7.65,1-10.81-.16-5.12-5.95-8.37-6.82-7.34,2.32-10.66,1.74-6.08-5-9.44-5.26S120,3.58,116.63,3.58,109.73-.27,106.43,0,100.26,4.7,97,5.28s-7.45-2.6-10.66-1.74S81.08,9.23,78,10.37s-7.78-1.26-10.8.15S63,17,60.1,18.7s-7.88.12-10.62,2S46.52,27.87,44,30s-7.73,1.47-10.1,3.84S32.18,41.4,30,44s-7.36,2.78-9.28,5.53-.36,7.7-2,10.61-6.76,4-8.18,7.05,1,7.64-.16,10.8-5.95,5.13-6.82,8.38S5.86,93.67,5.28,97s-5,6.07-5.26,9.44,3.56,6.82,3.56,10.2S-.27,123.52,0,126.83,4.7,133,5.28,136.27s-2.6,7.45-1.74,10.66,5.69,5.25,6.83,8.38-1.26,7.78.15,10.8,6.51,4.16,8.18,7,.12,7.88,2,10.61,7.13,3,9.28,5.53,1.47,7.73,3.84,10.1,7.54,1.68,10.1,3.84,2.78,7.36,5.53,9.28,7.7.35,10.61,2,4,6.77,7.05,8.19,7.64-1,10.8.15,5.13,6,8.38,6.83S93.67,227.4,97,228s6.07,5,9.44,5.26,6.82-3.56,10.2-3.56,6.89,3.85,10.2,3.56,6.16-4.69,9.44-5.26,7.45,2.6,10.66,1.74,5.25-5.69,8.38-6.83,7.78,1.26,10.8-.15,4.16-6.52,7-8.19,7.88-.11,10.61-2,3-7.14,5.53-9.29,7.73-1.47,10.1-3.83,1.68-7.54,3.84-10.1,7.36-2.79,9.28-5.53.35-7.71,2-10.61,6.77-4,8.19-7-1-7.65.15-10.81,6-5.12,6.83-8.37-2.32-7.34-1.74-10.66,5-6.08,5.26-9.44S229.68,120,229.68,116.63Z"/></g></g></g></svg>