<svg width="682" height="683" viewBox="0 0 682 683" fill="none" xmlns="http://www.w3.org/2000/svg">
<path d="M671.549 341.5C671.549 331.632 682.789 321.356 681.942 311.722C681.095 302.087 668.25 293.708 666.644 284.191C665.038 274.673 674.235 262.441 671.724 253.069C669.213 243.697 654.966 237.712 651.725 228.72C648.485 219.728 655.404 206.007 651.287 197.19C647.171 188.373 632.252 185.045 627.377 176.608C622.501 168.17 627.056 153.602 621.538 145.603C616.02 137.603 600.693 136.844 594.416 129.487C588.139 122.13 590.124 106.919 583.234 100C576.344 93.081 561.221 95.0954 553.747 88.7893C546.273 82.4832 545.602 67.3019 537.602 61.6965C529.603 56.0911 515.093 60.6455 506.627 55.8575C498.16 51.0695 494.949 36.1217 486.19 31.9761C477.432 27.8304 463.856 34.8956 454.631 31.509C445.405 28.1223 439.683 14.138 430.194 11.598C420.706 9.05809 408.765 18.3713 399.073 16.678C389.38 14.9846 381.322 2.08051 371.513 1.32144C361.703 0.562374 351.339 11.4521 341.5 11.4521C331.662 11.4521 321.356 0.212035 311.722 1.0003C302.087 1.78856 293.708 14.7219 284.191 16.4152C274.673 18.1085 262.441 8.82453 253.069 11.3353C243.697 13.846 237.712 27.9472 228.72 31.2754C219.728 34.6036 206.007 27.5968 197.19 31.7133C188.373 35.8298 184.928 50.6316 176.462 55.5947C167.995 60.5579 153.456 55.9451 145.457 61.4337C137.457 66.9224 136.815 82.3665 129.458 88.585C122.101 94.8035 106.89 92.8766 99.971 99.7958C93.0518 106.715 94.9495 121.867 88.585 129.458C82.2205 137.048 67.0975 137.574 61.4921 145.603C55.8867 153.631 60.4411 168.083 55.6531 176.578C50.8652 185.074 35.9174 188.256 31.7717 197.161C27.626 206.065 34.6912 219.466 31.3046 228.691C27.918 237.917 13.9336 243.668 11.3937 253.157C8.85372 262.645 18.1085 274.469 16.4152 284.191C14.7219 293.913 1.81775 301.912 1.05869 311.751C0.29962 321.589 11.4521 331.662 11.4521 341.529C11.4521 351.397 0.212035 361.616 1.0003 371.279C1.78856 380.943 14.7219 389.292 16.4152 398.839C18.1085 408.386 8.82453 420.589 11.3353 429.961C13.8461 439.332 27.9472 445.288 31.2754 454.426C34.6036 463.564 27.5968 477.14 31.7133 485.957C35.8298 494.773 50.7192 498.102 55.5948 506.393C60.4703 514.684 55.9451 529.399 61.4337 537.369C66.9224 545.339 82.2497 546.127 88.5266 553.514C94.8035 560.9 92.8182 576.081 99.7374 583C106.657 589.92 121.75 587.905 129.224 594.211C136.698 600.517 137.34 615.699 145.369 621.304C153.398 626.91 167.849 622.326 176.345 627.143C184.841 631.96 188.023 646.908 196.927 651.054C205.832 655.199 219.232 648.134 228.458 651.492C237.683 654.849 243.435 669.009 252.923 671.432C262.411 673.855 274.469 664.892 284.191 666.644C293.913 668.395 301.912 681.241 311.751 682C321.589 682.759 331.662 671.607 341.53 671.607C351.397 671.607 361.645 682.847 371.308 682C380.972 681.154 389.292 668.308 398.868 666.644C408.444 664.98 420.619 674.234 429.99 671.724C439.362 669.213 445.317 655.112 454.455 651.784C463.593 648.455 477.169 655.462 485.986 651.346C494.803 647.229 498.131 632.311 506.422 627.435C514.714 622.56 529.428 627.114 537.398 621.596C545.368 616.078 546.157 600.751 553.543 594.474C560.929 588.197 576.111 590.182 583.03 583.292C589.949 576.402 587.934 561.279 594.241 553.806C600.547 546.332 615.728 545.66 621.333 537.661C626.939 529.661 622.355 515.152 627.172 506.685C631.99 498.218 646.937 495.007 651.083 486.249C655.229 477.49 648.164 463.914 651.521 454.689C654.878 445.463 669.038 439.741 671.461 430.253C673.884 420.764 664.688 408.824 666.381 399.131C668.074 389.438 680.979 381.381 681.738 371.571C682.497 361.762 671.549 351.339 671.549 341.5Z" fill="#F2EEE5"/>
</svg>
