<svg width="643" height="704" viewBox="0 0 643 704" fill="none" xmlns="http://www.w3.org/2000/svg">
<path d="M289.5 640C449.386 640 579 509.939 579 349.5C579 189.061 449.386 59 289.5 59C129.614 59 0 189.061 0 349.5C0 509.939 129.614 640 289.5 640Z" fill="#F4F1E3"/>
<path d="M289.5 339.91L377.504 72.6965C365.845 69.0115 353.965 66.0728 341.934 63.8979L289.5 339.91Z" fill="#DDB623"/>
<path d="M341.964 63.7806C329.927 61.5689 317.764 60.1192 305.546 59.4399L289.5 339.91L341.964 63.7806Z" fill="#C5403C"/>
<path d="M289.5 339.91L232.623 64.6311C220.626 67.0145 208.793 70.1689 197.199 74.0749L289.5 339.88V339.91Z" fill="#DDB623"/>
<path d="M289.5 339.909L268.895 59.7332C256.714 60.6017 244.599 62.2375 232.623 64.631L289.5 339.909Z" fill="#C5403C"/>
<path d="M289.5 339.91L305.546 59.4399C300.227 59.1466 294.878 59 289.5 59C282.573 59 275.734 59.264 269.041 59.7332L289.5 339.91Z" fill="#6C8392"/>
<path d="M311.45 639.179C324.47 638.186 337.408 636.315 350.177 633.577L289.5 339.91L311.45 639.179Z" fill="#C5403C"/>
<path d="M350.177 633.577C362.936 630.855 375.494 627.259 387.763 622.814L289.5 339.91L350.177 633.577Z" fill="#DDB623"/>
<path d="M289.5 339.91L272.344 639.472C278.014 639.795 283.742 640 289.5 640C296.895 640 304.114 639.707 311.45 639.179L289.5 340.027V339.91Z" fill="#6C8392"/>
<path d="M289.5 339.91L233.558 634.545C246.36 637.07 259.319 638.716 272.343 639.472L289.5 339.91Z" fill="#C5403C"/>
<path d="M195.825 624.427C208.167 628.663 220.784 632.044 233.588 634.545L289.5 339.91L195.825 624.427Z" fill="#DDB623"/>
<path d="M293.98 84.4763H290.62V88.8923H288.892V84.4763H279.412V83.2283L288.316 72.0923H290.236L281.644 82.9403H288.94V79.0523H290.62V82.9403H293.98V84.4763Z" fill="black"/>
<path d="M318.842 81.2836C320.574 81.6093 321.836 82.2602 322.628 83.2363C323.438 84.1986 323.753 85.362 323.574 86.7263C323.449 87.6781 323.108 88.4965 322.55 89.1813C321.994 89.8503 321.236 90.3392 320.276 90.6481C319.316 90.957 318.185 91.0255 316.884 90.8537C315.679 90.6944 314.562 90.3532 313.533 89.8299C312.522 89.2929 311.735 88.6563 311.17 87.9199L312.18 86.6736C312.66 87.318 313.337 87.8834 314.209 88.3699C315.083 88.8404 316.044 89.1448 317.09 89.2831C318.455 89.4633 319.548 89.3092 320.371 88.8207C321.195 88.3164 321.676 87.5407 321.813 86.4937C321.949 85.4625 321.682 84.6042 321.014 83.9187C320.345 83.2333 319.257 82.791 317.751 82.5919L316.561 82.4348L316.726 81.1736L322.101 76.0009L313.583 74.8756L313.783 73.3527L324.49 74.7672L324.33 75.9808L318.842 81.2836Z" fill="black"/>
<path d="M356.015 97.0891L355.618 98.5731L344.239 95.5124L344.555 94.3298L353.064 89.5355C354.137 88.9293 354.901 88.3643 355.355 87.8404C355.829 87.3052 356.149 86.7284 356.314 86.1101C356.57 85.1517 356.436 84.3204 355.912 83.6161C355.408 82.9005 354.545 82.3786 353.325 82.0503C351.424 81.5391 349.788 81.7451 348.415 82.6683L347.505 81.3301C348.337 80.7585 349.293 80.4027 350.374 80.2626C351.47 80.1266 352.636 80.2249 353.873 80.5574C355.526 81.002 356.726 81.7474 357.473 82.7934C358.24 83.8281 358.442 85.0256 358.079 86.3859C357.856 87.2206 357.456 87.9746 356.878 88.6478C356.301 89.3209 355.361 90.0207 354.057 90.747L347.092 94.6892L356.015 97.0891Z" fill="black"/>
<path d="M251.921 83.1851C253.678 83.0498 255.065 83.3508 256.081 84.088C257.112 84.8072 257.716 85.849 257.895 87.2133C258.02 88.1652 257.902 89.0443 257.539 89.8507C257.175 90.6412 256.569 91.3103 255.721 91.8581C254.873 92.4059 253.799 92.7657 252.498 92.9375C251.293 93.0968 250.125 93.0573 248.997 92.819C247.882 92.5628 246.957 92.1525 246.221 91.588L246.876 90.1216C247.506 90.6193 248.305 90.9899 249.273 91.2332C250.239 91.4607 251.245 91.5053 252.292 91.367C253.656 91.1867 254.672 90.7539 255.341 90.0684C256.007 89.3671 256.272 88.493 256.135 87.4459C255.999 86.4148 255.52 85.6549 254.698 85.1665C253.875 84.678 252.711 84.5333 251.204 84.7323L250.014 84.8895L249.849 83.6283L253.706 77.2361L245.188 78.3614L244.988 76.8384L255.695 75.424L255.854 76.6376L251.921 83.1851Z" fill="black"/>
<path d="M226.508 94.6755L226.905 96.1595L215.525 99.2202L215.209 98.0377L220.188 89.6154C220.815 88.5521 221.195 87.6795 221.327 86.9977C221.471 86.2963 221.46 85.6364 221.295 85.0181C221.039 84.0597 220.509 83.407 219.704 83.0602C218.911 82.6937 217.904 82.6746 216.683 83.0029C214.783 83.514 213.468 84.5138 212.739 86.0021L211.285 85.2998C211.72 84.3874 212.371 83.5994 213.237 82.9356C214.118 82.2678 215.177 81.7676 216.413 81.4351C218.067 80.9905 219.477 81.0335 220.646 81.5642C221.826 82.0753 222.597 83.011 222.961 84.3713C223.184 85.206 223.213 86.0597 223.049 86.9323C222.884 87.805 222.419 88.8829 221.652 90.1661L217.585 97.0755L226.508 94.6755Z" fill="black"/>
<path d="M288.922 633.243H287.662V631.587H287.014V633.243H283.459V633.711L286.798 637.887H287.518L284.296 633.819H287.032V635.277H287.662V633.819H288.922V633.243Z" fill="black"/>
<path d="M324.439 633.273C325.087 633.152 325.56 632.908 325.857 632.543C326.16 632.183 326.278 631.747 326.211 631.236C326.165 630.88 326.037 630.573 325.828 630.317C325.62 630.066 325.336 629.883 324.977 629.767C324.617 629.651 324.194 629.626 323.707 629.69C323.256 629.749 322.837 629.877 322.452 630.073C322.073 630.274 321.778 630.512 321.567 630.788L321.945 631.254C322.125 631.013 322.378 630.802 322.705 630.62C323.032 630.443 323.392 630.33 323.784 630.278C324.295 630.211 324.704 630.268 325.012 630.451C325.321 630.64 325.501 630.931 325.552 631.323C325.603 631.709 325.503 632.03 325.252 632.287C325.002 632.544 324.595 632.709 324.03 632.783L323.585 632.842L323.647 633.314L325.658 635.252L322.469 635.672L322.543 636.242L326.553 635.714L326.493 635.26L324.439 633.273Z" fill="black"/>
<path d="M364.347 622.09L364.192 621.537L359.951 622.734L360.074 623.174L363.278 624.928C363.682 625.15 363.97 625.357 364.143 625.551C364.323 625.749 364.445 625.963 364.509 626.194C364.61 626.551 364.563 626.863 364.37 627.128C364.185 627.398 363.865 627.597 363.41 627.726C362.702 627.926 362.089 627.856 361.571 627.517L361.237 628.022C361.551 628.232 361.91 628.36 362.315 628.408C362.726 628.454 363.161 628.412 363.622 628.282C364.238 628.108 364.683 627.823 364.958 627.429C365.24 627.038 365.31 626.59 365.168 626.083C365.081 625.771 364.928 625.491 364.709 625.242C364.49 624.993 364.135 624.736 363.644 624.47L361.022 623.028L364.347 622.09Z" fill="black"/>
<path d="M249.061 632.752C249.719 632.802 250.238 632.689 250.618 632.413C251.004 632.144 251.23 631.754 251.297 631.243C251.344 630.886 251.299 630.557 251.164 630.255C251.027 629.959 250.8 629.709 250.482 629.504C250.165 629.299 249.763 629.164 249.276 629.1C248.824 629.041 248.387 629.055 247.965 629.145C247.547 629.241 247.201 629.395 246.925 629.606L247.171 630.155C247.407 629.969 247.706 629.83 248.068 629.739C248.43 629.653 248.807 629.636 249.199 629.688C249.709 629.755 250.09 629.917 250.34 630.174C250.59 630.436 250.689 630.764 250.638 631.156C250.587 631.542 250.408 631.827 250.1 632.01C249.792 632.193 249.356 632.247 248.792 632.172L248.346 632.114L248.285 632.586L249.73 634.979L246.54 634.559L246.466 635.129L250.475 635.657L250.534 635.203L249.061 632.752Z" fill="black"/>
<path d="M211.042 620.614L211.191 620.055L206.906 618.903L206.787 619.348L208.662 622.52C208.898 622.92 209.041 623.249 209.091 623.505C209.145 623.77 209.141 624.018 209.079 624.251C208.983 624.612 208.783 624.858 208.48 624.988C208.181 625.126 207.802 625.133 207.342 625.01C206.626 624.817 206.131 624.441 205.857 623.88L205.309 624.145C205.473 624.488 205.718 624.785 206.044 625.035C206.376 625.287 206.775 625.475 207.24 625.6C207.863 625.768 208.394 625.751 208.834 625.552C209.279 625.359 209.569 625.007 209.706 624.494C209.79 624.18 209.801 623.859 209.739 623.53C209.677 623.201 209.502 622.795 209.213 622.312L207.682 619.71L211.042 620.614Z" fill="black"/>
</svg>
