<svg xmlns="http://www.w3.org/2000/svg" viewBox="0 0 198.1 198.1"><defs><style>.cls-1{fill:#f4f1e3;}.cls-2{fill:#ddb623;}.cls-3{fill:#c5403c;}.cls-4{fill:#6c8392;}.cls-5{font-size:9px;font-family:Montserrat-Regular, Montserrat;}</style></defs><title>03. Pointers Circle</title><g id="Camada_2" data-name="Camada 2"><g id="Pointers_Circle" data-name="Pointers Circle"><g id="Pointers_Circle-2" data-name="Pointers Circle"><circle id="Base" class="cls-1" cx="99.05" cy="99.05" r="99.05"/><g id="Point_places" data-name="Point places"><path class="cls-2" d="M99.05,95.78,129.16,4.67a98.85,98.85,0,0,0-12.17-3L99.05,95.78Z"/><path class="cls-3" d="M117,1.63A99.84,99.84,0,0,0,104.54.15L99.05,95.78Z"/><path class="cls-2" d="M99.05,95.78,79.59,1.92A97.69,97.69,0,0,0,67.47,5.14L99.05,95.77Z"/><path class="cls-3" d="M99.05,95.78,92,.25A99.72,99.72,0,0,0,79.59,1.92L99.05,95.78Z"/><path class="cls-4" d="M99.05,95.78,104.54.15Q101.81,0,99.05,0c-2.37,0-4.71.09-7,.25l7,95.53Z"/><path class="cls-3" d="M106.56,197.82a99.48,99.48,0,0,0,13.25-1.91L99.05,95.78Z"/><path class="cls-2" d="M119.81,195.91a97.65,97.65,0,0,0,12.86-3.67L99.05,95.78Z"/><path class="cls-4" d="M99.05,95.78,93.18,197.92c1.94.11,3.9.18,5.87.18,2.53,0,5-.1,7.51-.28l-7.51-102Z"/><path class="cls-3" d="M99.05,95.78,79.91,196.24a98.21,98.21,0,0,0,13.27,1.68L99.05,95.78Z"/><path class="cls-2" d="M67,192.79a97.42,97.42,0,0,0,12.92,3.45L99.05,95.78Z"/></g><g id="Top_Numbers" data-name="Top Numbers"><text class="cls-5" transform="translate(95.27 11.35)">4</text><text class="cls-5" transform="translate(106.15 11.68) rotate(7.5)">3</text><text class="cls-5" transform="matrix(0.97, 0.26, -0.26, 0.97, 117.16, 13.52)">2</text><text class="cls-5" transform="translate(84.41 12.95) rotate(-7.5)">3</text><text class="cls-5" transform="matrix(0.97, -0.26, 0.26, 0.97, 73.74, 14.95)">2</text></g><g id="Top_Numbers-2" data-name="Top Numbers"><text class="cls-5" transform="matrix(1, 0, 0, -1, 96.86, 189.3)">4</text><text class="cls-5" transform="matrix(0.99, -0.13, -0.13, -0.99, 109.19, 188.84)">3</text><text class="cls-5" transform="matrix(0.96, -0.27, -0.27, -0.96, 121.44, 186.56)">2</text><text class="cls-5" transform="matrix(0.99, 0.13, 0.13, -0.99, 85.26, 188.43)">3</text><text class="cls-5" transform="matrix(0.97, 0.26, 0.26, -0.97, 72.22, 185.11)">2</text></g></g></g></g></svg>