<svg width="755" height="594" viewBox="0 0 755 594" fill="none" xmlns="http://www.w3.org/2000/svg">
<path d="M115.331 153.943C77.3651 222.764 68.2413 303.878 89.9669 379.439C111.692 455 162.488 518.82 231.178 556.858C299.869 594.897 380.828 604.038 456.245 582.271C531.663 560.504 595.361 509.612 633.327 440.79L115.331 153.943Z" fill="#90B3B1"/>
<g filter="url(#filter0_d_174_177)">
<path d="M224.108 216.403C223.041 218.338 221.603 220.044 219.878 221.421C218.152 222.799 216.172 223.823 214.051 224.434C211.93 225.045 209.71 225.23 207.518 224.981C205.325 224.731 203.203 224.051 201.273 222.979L17.2473 121.156C13.3487 118.994 10.467 115.369 9.23609 111.079C8.00517 106.788 8.52586 102.183 10.6836 98.2774C12.8414 94.3715 16.4595 91.4843 20.7419 90.251C25.0244 89.0177 29.6204 89.5394 33.5189 91.7013L217.514 193.555C219.447 194.619 221.151 196.055 222.529 197.78C223.907 199.505 224.932 201.485 225.545 203.608C226.157 205.73 226.346 207.953 226.099 210.149C225.853 212.345 225.176 214.47 224.108 216.403Z" fill="url(#paint0_linear_174_177)"/>
</g>
<defs>
<filter id="filter0_d_174_177" x="0.582275" y="85.5959" width="233.622" height="151.492" filterUnits="userSpaceOnUse" color-interpolation-filters="sRGB">
<feFlood flood-opacity="0" result="BackgroundImageFix"/>
<feColorMatrix in="SourceAlpha" type="matrix" values="0 0 0 0 0 0 0 0 0 0 0 0 0 0 0 0 0 0 127 0" result="hardAlpha"/>
<feOffset dy="4"/>
<feGaussianBlur stdDeviation="4"/>
<feComposite in2="hardAlpha" operator="out"/>
<feColorMatrix type="matrix" values="0 0 0 0 0 0 0 0 0 0 0 0 0 0 0 0 0 0 0.35 0"/>
<feBlend mode="normal" in2="BackgroundImageFix" result="effect1_dropShadow_174_177"/>
<feBlend mode="normal" in="SourceGraphic" in2="effect1_dropShadow_174_177" result="shape"/>
</filter>
<linearGradient id="paint0_linear_174_177" x1="109.355" y1="172.079" x2="125.647" y2="142.658" gradientUnits="userSpaceOnUse">
<stop stop-color="#94B5B2"/>
<stop offset="1" stop-color="#82B8B4"/>
</linearGradient>
</defs>
</svg>
