<svg width="70" height="79" viewBox="0 0 70 79" fill="none" xmlns="http://www.w3.org/2000/svg">
<path d="M0.519223 37.2946C0.100146 37.8853 -0.0755693 38.621 0.0299464 39.3432C0.135462 40.0653 0.51376 40.7161 1.08331 41.1553L7.51905 46.1715V57.1231C7.52241 58.0232 7.69884 58.9139 8.03826 59.7442C8.37768 60.5745 8.87345 61.3282 9.49725 61.9623C10.1211 62.5964 10.8607 63.0984 11.6739 63.4397C12.4871 63.781 13.358 63.9549 14.2368 63.9514H18.9034V76.1636C18.9034 76.9159 19.1951 77.6373 19.7145 78.1692C20.2338 78.7012 20.9381 79 21.6726 79H50.1078C50.8422 79 51.5465 78.7012 52.0659 78.1692C52.5852 77.6373 52.8769 76.9159 52.8769 76.1636V63.2948C52.8896 62.4225 53.1143 61.5671 53.5306 60.8059C53.9469 60.0448 54.5418 59.4019 55.2615 58.9352C59.2652 56.4321 62.6572 53.0246 65.1782 48.973C67.6993 44.9215 69.2825 40.3332 69.807 35.5588C70.3315 30.7845 69.7834 25.9505 68.2045 21.4264C66.6256 16.9023 64.0578 12.8079 60.6973 9.45602C57.7085 6.42059 54.1619 4.02212 50.2626 2.39929C46.3633 0.776455 42.1886 -0.0385489 37.9799 0.00140065C30.5026 -0.0275797 23.2609 2.67887 17.5589 7.63337C11.8569 12.5879 8.06923 19.4648 6.87804 27.0259C6.75803 27.8814 6.45129 28.6983 5.98063 29.4158L0.519223 37.2946Z" fill="#CF6B33"/>
</svg>
