<svg width="70" height="79" viewBox="0 0 70 79" fill="none" xmlns="http://www.w3.org/2000/svg">
<path d="M69.49 37.2947L64.0224 29.4159C63.5512 28.6985 63.2441 27.8816 63.124 27.026C61.9265 19.4673 58.1332 12.5934 52.4259 7.63987C46.7185 2.68633 39.4714 -0.022024 31.9872 0.00160886C27.7733 -0.0412458 23.5931 0.772425 19.689 2.39542C15.7848 4.01841 12.2346 6.41842 9.24418 9.4562C5.90207 12.8186 3.35056 16.9141 1.78241 21.4334C0.214267 25.9527 -0.329503 30.7774 0.192186 35.5433C0.713875 40.3091 2.28738 44.8913 4.79382 48.9436C7.30026 52.996 10.6741 56.4126 14.6604 58.9352C15.3857 59.3988 15.9863 60.0404 16.4076 60.8018C16.829 61.5631 17.0578 62.4201 17.0733 63.2949V76.1636C17.0733 76.9159 17.3654 77.6373 17.8853 78.1692C18.4052 78.7012 19.1103 79 19.8456 79H48.3128C48.6757 79 49.0349 78.9265 49.3699 78.7836C49.7048 78.6407 50.0087 78.4314 50.2641 78.1677C50.5195 77.9039 50.7213 77.591 50.8578 77.2471C50.9943 76.9031 51.0628 76.5349 51.0594 76.1636V63.9514H55.7569C57.5317 63.9515 59.2346 63.2338 60.4944 61.9547C61.7542 60.6756 62.4687 58.9389 62.4823 57.1231V46.1715L68.9252 41.1554C69.4899 40.7121 69.8644 40.0619 69.9697 39.3417C70.0751 38.6216 69.9031 37.8877 69.49 37.2947Z" fill="#C1A527"/>
</svg>
