<svg xmlns="http://www.w3.org/2000/svg" viewBox="0 0 27.27 30.06"><defs><style>.cls-1{fill:#c1a527;}</style></defs><title>09. left head</title><g id="Camada_2" data-name="Camada 2"><g id="Extras"><g id="_left_Score" data-name="(left) Score"><path id="Head" class="cls-1" d="M27.07,14.2l-2.13-3a2.19,2.19,0,0,1-.35-.91A12.25,12.25,0,0,0,12.46,0,12.4,12.4,0,0,0,3.6,3.6,12.05,12.05,0,0,0,5.71,22.44a2,2,0,0,1,.94,1.66V29a1.08,1.08,0,0,0,1.08,1.08H18.82A1.07,1.07,0,0,0,19.89,29V24.35h1.83a2.62,2.62,0,0,0,2.62-2.6V17.58l2.51-1.91a1.07,1.07,0,0,0,.22-1.47Z"/></g></g></g></svg>