<svg xmlns="http://www.w3.org/2000/svg" viewBox="0 0 27.27 30.06"><defs><style>.cls-1{fill:#cf6b33;}</style></defs><title>10. right head</title><g id="Camada_2" data-name="Camada 2"><g id="Extras"><g id="_right_Score" data-name="(right) Score"><path id="Head" class="cls-1" d="M.2,14.2a1.06,1.06,0,0,0,.22,1.47l2.51,1.91v4.17a2.61,2.61,0,0,0,2.62,2.6H7.37V29a1.08,1.08,0,0,0,1.08,1.08H19.54A1.08,1.08,0,0,0,20.62,29V24.1a2,2,0,0,1,.93-1.66A12,12,0,0,0,23.67,3.6,12.42,12.42,0,0,0,14.81,0,12.24,12.24,0,0,0,2.68,10.29a2.19,2.19,0,0,1-.35.91L.2,14.2Z"/></g></g></g></svg>